<?xml version="1.0" encoding="UTF-8" standalone="no"?>
<!-- Created with Inkscape (http://www.inkscape.org/) -->

<svg
   width="200mm"
   height="200mm"
   viewBox="0 0 200 200"
   version="1.1"
   id="svg1"
   inkscape:version="1.3.2 (091e20e, 2023-11-25, custom)"
   sodipodi:docname="achilleastudios.svg"
   inkscape:export-filename="achilleastudios.png"
   inkscape:export-xdpi="63.5"
   inkscape:export-ydpi="63.5"
   xmlns:inkscape="http://www.inkscape.org/namespaces/inkscape"
   xmlns:sodipodi="http://sodipodi.sourceforge.net/DTD/sodipodi-0.dtd"
   xmlns="http://www.w3.org/2000/svg"
   xmlns:svg="http://www.w3.org/2000/svg">
  <sodipodi:namedview
     id="namedview1"
     pagecolor="#ffffff"
     bordercolor="#000000"
     borderopacity="0.25"
     inkscape:showpageshadow="2"
     inkscape:pageopacity="0.0"
     inkscape:pagecheckerboard="0"
     inkscape:deskcolor="#d1d1d1"
     inkscape:document-units="mm"
     inkscape:zoom="0.73139029"
     inkscape:cx="396.50513"
     inkscape:cy="561.25984"
     inkscape:window-width="1920"
     inkscape:window-height="1017"
     inkscape:window-x="-8"
     inkscape:window-y="-8"
     inkscape:window-maximized="1"
     inkscape:current-layer="layer1" />
  <defs
     id="defs1" />
  <g
     inkscape:label="Layer 1"
     inkscape:groupmode="layer"
     id="layer1">
    <path
       style="fill:#000000;stroke-width:0.241464"
       d="M 63.763069,54.88753 39.069428,78.369376 70.465629,81.459092 Z"
       id="path1" />
    <path
       style="fill:#000000;stroke-width:0.241464"
       d="m 39.187509,87.609575 27.100245,21.396575 3.56581,-27.204217 z"
       id="path1-9" />
    <path
       style="fill:#000000;stroke-width:0.241464"
       d="M 100.01288,75.330953 72.912638,53.93438 69.346818,81.138595 Z"
       id="path1-90" />
    <path
       style="fill:#000000;stroke-width:0.241464"
       d="M 142.24931,35.23359 115.14907,13.837017 111.58325,41.041232 Z"
       id="path1-0" />
    <path
       style="fill:#000000;stroke-width:0.241464"
       d="m 105.37576,14.469636 -24.693649,23.48185 31.396209,3.089707 z"
       id="path1-9-3" />
    <path
       style="fill:#000000;stroke-width:0.241464"
       d="m 118.26781,67.05342 24.69364,-23.481846 -31.3962,-3.089716 z"
       id="path1-90-9" />
    <path
       style="fill:#000000;stroke-width:0.497092"
       d="m 112.82064,39.074426 c -0.27621,2.114943 -2.86606,3.191542 -3.65072,5.061249 -0.68587,1.634308 -0.77442,3.426945 -1.46028,5.061254 -0.29989,0.714576 -1.11462,1.199089 -1.46029,1.897966 -1.69203,3.420914 -0.15913,1.459922 -0.73015,4.428596 -0.62657,3.257436 -3.16402,6.116039 -3.65073,9.489841 -0.2415,1.674056 0.17628,3.381093 0,5.061249 -0.46969,4.476806 -1.0708,9.552838 -2.190426,13.918437 -0.384366,1.498713 -1.169004,2.914216 -1.460289,4.428596 -0.200058,1.040081 0.08671,2.111534 0,3.16328 -0.367642,4.459729 -0.997204,8.871986 -1.460291,13.285776 -0.548748,5.23027 0.464966,10.5789 0,15.81641 -0.09519,1.07214 -0.652733,2.09007 -0.730144,3.16328 -0.166998,2.31522 0.157209,4.64348 0,6.95922 -0.429587,6.3279 -1.584316,12.67741 -2.190436,18.97969 -0.24254,2.52187 0.522449,5.10207 0,7.59186 -0.27535,1.31225 -1.226227,2.47769 -1.460282,3.79595 -0.797662,4.4925 1.028246,9.46368 0,13.91846 -0.257041,1.11358 -1.225834,2.04593 -1.460291,3.16326 -0.638213,3.04149 0.329662,4.20433 -0.730144,6.95923"
       id="path2" />
    <path
       style="fill:#000000;stroke-width:0.497092"
       d="m 68.281838,80.197082 c 10.887775,0.814042 12.530278,3.556183 19.713895,8.224532 0.435376,0.28293 1.075469,0.299217 1.460289,0.632658 0.55403,0.480056 0.695354,2.500475 1.460289,3.163278 0.384822,0.333439 1.120317,0.264434 1.460291,0.632656 0.679936,0.736445 0.856531,1.745907 1.460282,2.530627 0.572777,0.74445 1.728652,1.09771 2.190436,1.89797 0.81422,1.41101 1.408435,3.073417 2.190435,4.428587 0.520136,0.90137 -0.224723,2.82237 0,3.79594 0.837839,3.62986 0.831907,0.44088 1.460289,3.16328 0.143201,0.62037 -0.230895,1.29778 0,1.89797 0.973526,2.53062 0.730136,-2.74151 0.730136,0.63265"
       id="path3" />
    <path
       style="fill:#000000;stroke-width:0.359446"
       d="m 99.120582,119.74056 c 0.700077,-0.46002 1.400148,-0.92002 2.100228,-1.38003 0.52505,-0.15333 1.10058,-0.21053 1.57516,-0.46001 1.24618,-0.65508 1.57286,-2.298 2.62528,-3.22006 1.07494,-0.94176 2.98174,-1.1727 4.20045,-1.84002 1.63361,-1.14498 2.5287,-1.88128 4.20044,-2.76006 0.67117,-0.35281 1.54678,-0.43512 2.10023,-0.92002 0.27673,-0.24243 0.19943,-0.72982 0.52505,-0.92 0.78422,-0.45805 1.78228,-0.55074 2.62528,-0.92002 3.03402,-1.32907 7.40079,-3.68692 9.97607,-5.5201 1.82747,-1.30087 3.46278,-2.797535 5.25056,-4.14007 0.85086,-0.638968 2.27089,-0.908587 2.62528,-1.840037 0.73507,-1.932031 -0.73509,-4.508076 0,-6.440111 0.82818,-2.176749 0.52505,-4.558668 0.52505,-6.90012"
       id="path4" />
  </g>
</svg>
